PathFileType	4	(X/Y/Z)	G:\GRF\jawan data\CompiledGRF\03. Mohit Kumar\0231~ac~Walking 02_markers.trc
DataRate	CameraRate	NumFrames	NumMarkers	Units	OrigDataRate	OrigDataStartFrame	OrigNumFrames
100.000000	100.000000	17	18	mm	100.000000	779	891
Frame#	Time	c7			r should			l should			sacrum			r asis			r bar 1			r knee 1			r bar 2			r mall			r heel			r met			l asis			l bar 1			l knee 1			l bar 2			l mall			l heel			l met			
		X1	Y1	Z1	X2	Y2	Z2	X3	Y3	Z3	X4	Y4	Z4	X5	Y5	Z5	X6	Y6	Z6	X7	Y7	Z7	X8	Y8	Z8	X9	Y9	Z9	X10	Y10	Z10	X11	Y11	Z11	X12	Y12	Z12	X13	Y13	Z13	X14	Y14	Z14	X15	Y15	Z15	X16	Y16	Z16	X17	Y17	Z17	X18	Y18	Z18	

780	7.79	nan	nan	nan	-2114.90283203125	1450.8056640625	61.42437362670898	-2047.273193359375	1462.968872070313	394.1371459960938	nan	nan	nan	nan	nan	nan	nan	nan	nan	nan	nan	nan	nan	nan	nan	nan	nan	nan	nan	nan	nan	nan	nan	nan	-2149.340576171875	1028.17431640625	363.2265319824219	nan	nan	nan	nan	nan	nan	nan	nan	nan	nan	nan	nan	nan	nan	nan	nan	nan	nan	
781	7.8	nan	nan	nan	-2123.100830078125	1450.45849609375	63.44927978515625	-2055.609375	1461.79052734375	396.2749633789063	nan	nan	nan	nan	nan	nan	nan	nan	nan	nan	nan	nan	nan	nan	nan	nan	nan	nan	nan	nan	nan	nan	nan	nan	-2158.340087890625	1027.923828125	364.6337280273438	nan	nan	nan	nan	nan	nan	nan	nan	nan	nan	nan	nan	nan	nan	nan	nan	nan	nan	
782	7.81	nan	nan	nan	-2131.24853515625	1450.242309570313	65.54177856445313	-2064.013671875	1460.830810546875	398.5267028808594	nan	nan	nan	nan	nan	nan	nan	nan	nan	nan	nan	nan	nan	nan	nan	nan	nan	nan	nan	nan	nan	nan	nan	nan	-2167.595703125	1027.707763671875	366.2019958496094	nan	nan	nan	nan	nan	nan	nan	nan	nan	nan	nan	nan	nan	nan	nan	nan	nan	nan	
783	7.82	nan	nan	nan	-2139.27783203125	1450.123046875	67.72285461425781	-2072.48095703125	1460.061767578125	400.8644714355469	nan	nan	nan	nan	nan	nan	nan	nan	nan	nan	nan	nan	-1900.0078125	226.1825561523438	75.75789642333984	nan	nan	nan	nan	nan	nan	nan	nan	nan	-2177.115966796875	1027.51953125	367.9055480957031	nan	nan	nan	nan	nan	nan	nan	nan	nan	nan	nan	nan	nan	nan	nan	nan	nan	nan	
784	7.83	nan	nan	nan	-2147.25439453125	1450.155151367188	69.97711181640625	-2080.9326171875	1459.42236328125	403.250244140625	nan	nan	nan	nan	nan	nan	nan	nan	nan	nan	nan	nan	nan	nan	nan	nan	nan	nan	nan	nan	nan	nan	nan	nan	-2186.911865234375	1027.31396484375	369.6969604492188	nan	nan	nan	nan	nan	nan	nan	nan	nan	nan	nan	nan	nan	nan	nan	nan	nan	nan	
785	7.84	nan	nan	nan	-2155.10009765625	1450.296508789063	72.33015441894531	-2089.323974609375	1458.904541015625	405.7498474121094	nan	nan	nan	nan	nan	nan	nan	nan	nan	nan	nan	nan	nan	nan	nan	nan	nan	nan	nan	nan	nan	nan	nan	nan	-2196.990478515625	1027.133056640625	371.5581970214844	nan	nan	nan	nan	nan	nan	nan	nan	nan	nan	nan	nan	nan	nan	nan	nan	nan	nan	
786	7.850000000000001	nan	nan	nan	-2162.823974609375	1450.55908203125	74.77507019042969	-2097.844970703125	1458.568237304688	408.35400390625	nan	nan	nan	nan	nan	nan	nan	nan	nan	nan	nan	nan	nan	nan	nan	nan	nan	nan	nan	nan	nan	nan	nan	nan	-2207.315185546875	1027.031860351563	373.4597778320313	nan	nan	nan	nan	nan	nan	nan	nan	nan	nan	nan	nan	nan	nan	nan	nan	nan	nan	
787	7.86	nan	nan	nan	-2170.430419921875	1450.921508789063	77.29461669921875	-2106.257080078125	1458.315185546875	411.0606384277344	nan	nan	nan	nan	nan	nan	nan	nan	nan	nan	nan	nan	nan	nan	nan	nan	nan	nan	nan	nan	nan	nan	nan	nan	-2217.83447265625	1027.105834960938	375.3428039550781	nan	nan	nan	nan	nan	nan	nan	nan	nan	nan	nan	nan	nan	nan	nan	nan	nan	nan	
788	7.87	nan	nan	nan	-2177.94189453125	1451.398315429688	79.83413696289063	-2114.7490234375	1458.209716796875	413.8197021484375	nan	nan	nan	nan	nan	nan	nan	nan	nan	nan	nan	nan	nan	nan	nan	nan	nan	nan	nan	nan	nan	nan	nan	nan	-2227.76513671875	1027.308837890625	377.2406616210938	nan	nan	nan	nan	nan	nan	nan	nan	nan	nan	nan	nan	nan	nan	nan	nan	nan	nan	
789	7.88	nan	nan	nan	-2185.486083984375	1452.007934570313	82.37202453613281	-2123.2998046875	1458.270263671875	416.6368713378906	nan	nan	nan	nan	nan	nan	nan	nan	nan	nan	nan	nan	nan	nan	nan	nan	nan	nan	nan	nan	nan	nan	nan	nan	-2235.763427734375	1027.144653320313	379.1333312988281	nan	nan	nan	nan	nan	nan	nan	nan	nan	nan	nan	nan	nan	nan	nan	nan	nan	nan	
790	7.890000000000001	nan	nan	nan	-2193.183349609375	1452.757690429688	84.89188385009766	-2131.827880859375	1458.440307617188	419.4466857910156	nan	nan	nan	nan	nan	nan	nan	nan	nan	nan	nan	nan	nan	nan	nan	nan	nan	nan	nan	nan	nan	nan	nan	nan	-2241.9111328125	1026.445556640625	381.0059204101563	nan	nan	nan	nan	nan	nan	nan	nan	nan	nan	nan	nan	nan	nan	nan	nan	nan	nan	
791	7.9	nan	nan	nan	-2201.060546875	1453.661743164063	87.43381500244141	-2140.286865234375	1458.77294921875	422.226806640625	nan	nan	nan	nan	nan	nan	nan	nan	nan	nan	nan	nan	nan	nan	nan	nan	nan	nan	nan	nan	nan	nan	nan	nan	nan	nan	nan	nan	nan	nan	nan	nan	nan	nan	nan	nan	nan	nan	nan	nan	nan	nan	nan	nan	nan	
792	7.91	nan	nan	nan	-2209.00048828125	1454.696899414063	89.976318359375	-2148.769287109375	1459.33056640625	424.9853515625	nan	nan	nan	nan	nan	nan	nan	nan	nan	nan	nan	nan	-1942.725952148438	255.4598999023438	75.51218414306641	nan	nan	nan	nan	nan	nan	nan	nan	nan	nan	nan	nan	nan	nan	nan	nan	nan	nan	nan	nan	nan	nan	nan	nan	nan	nan	nan	nan	nan	nan	
793	7.92	nan	nan	nan	-2216.985595703125	1455.841918945313	92.51934814453125	-2157.235107421875	1460.008422851563	427.7299499511719	nan	nan	nan	nan	nan	nan	nan	nan	nan	nan	nan	nan	nan	nan	nan	nan	nan	nan	nan	nan	nan	nan	nan	nan	nan	nan	nan	nan	nan	nan	nan	nan	nan	nan	nan	nan	nan	nan	nan	nan	nan	nan	nan	nan	nan	
794	7.930000000000001	nan	nan	nan	-2225.040771484375	1457.100463867188	95.07651519775391	-2165.5908203125	1460.783935546875	430.4531555175781	nan	nan	nan	nan	nan	nan	nan	nan	nan	nan	nan	nan	nan	nan	nan	nan	nan	nan	nan	nan	nan	nan	nan	nan	nan	nan	nan	nan	nan	nan	nan	nan	nan	nan	nan	nan	nan	nan	nan	nan	nan	nan	nan	nan	nan	
795	7.94	nan	nan	nan	-2233.21533203125	1458.49267578125	97.59615325927734	-2173.924560546875	1461.698608398438	433.1490478515625	nan	nan	nan	nan	nan	nan	nan	nan	nan	nan	nan	nan	nan	nan	nan	nan	nan	nan	nan	nan	nan	nan	nan	nan	nan	nan	nan	nan	nan	nan	nan	nan	nan	nan	nan	nan	nan	nan	nan	nan	nan	nan	nan	nan	nan	
796	7.95	nan	nan	nan	-2241.348876953125	1459.957885742188	100.1257934570313	-2182.317138671875	1462.76806640625	435.8079223632813	nan	nan	nan	nan	nan	nan	nan	nan	nan	nan	nan	nan	nan	nan	nan	nan	nan	nan	nan	nan	nan	nan	nan	nan	nan	nan	nan	nan	nan	nan	nan	nan	nan	nan	nan	nan	nan	nan	nan	nan	nan	nan	nan	nan	nan	
